<svg height="32" viewBox="0 0 32 32" width="32" xmlns="http://www.w3.org/2000/svg"><path d="m17.6756443 19.8827511c-.2124753.0759771-.4416207.1172489-.6805258.1172489h-.990237c-1.1109817 0-2.0048815-.8980806-2.0048815-2.0059191v-2.9881618c0-1.1193643.897616-2.0059191 2.0048815-2.0059191h.990237c1.1109817 0 2.0048815.8980806 2.0048815 2.0059191v2.9881618c0 .5052786-.1828982.9631199-.4854177 1.3133946l.7531847.7531847-.7071068.7071068zm-.8827511-.8827511h-.7939366c-.5562963 0-.9989566-.4476291-.9989566-.9998075v-3.000385c0-.5560909.4472481-.9998075.9989566-.9998075h1.0020868c.5562963 0 .9989566.4476291.9989566.9998075v3.000385c0 .2244538-.0728636.4306-.1960501.5966506l-1.3646101-1.3646101-.7071068.7071068zm-8.78604486-9c-1.66063649 0-3.00684834 1.3422643-3.00684834 2.9987856v7.0024288c0 1.6561835 1.33599155 2.9987856 3.00684834 2.9987856h16.98630336c1.6606364 0 3.0068483-1.3422643 3.0068483-2.9987856v-7.0024288c0-1.6561835-1.3359915-2.9987856-3.0068483-2.9987856zm1.99803316 3c-1.10726548 0-2.0048815.8877296-2.0048815 2 0 1.1045695.88772964 2 2 2h.9906311c.5574591 0 1.0093689.4438648 1.0093689 1 0 .5522847-.4426603 1-.9989566 1h-1.00208684c-.55170847 0-.99895656-.456284-.99895656-.9955287v-.0113072h-1v.0057569c0 1.1051654.8938998 2.001079 2.0048815 2.001079h.990237c1.1072655 0 2.0048815-.8877296 2.0048815-2 0-1.1045695-.8877296-2-2-2h-.9906311c-.55745905 0-1.0093689-.4438648-1.0093689-1 0-.5522847.44266033-1 .99895656-1h1.00208684c.5517085 0 .9989566.453186.9989566 1h1c0-1.1045695-.8938998-2-2.0048815-2zm14.9951185 6v1h-5v-7h1v6z" fill-rule="evenodd"/></svg>